<svg id="Layer_1" xmlns="http://www.w3.org/2000/svg" viewBox="0 0 768 537"><style>.st0{fill:#41b883}.st1{fill:#498e6d}.st3{fill:#73a88d}.st5{fill:#35495e}</style><path class="st0" d="M395 489.5c-5.8 0-10.5-4.7-10.5-10.5V37c0-5.8 4.7-10.5 10.5-10.5h347.5c5.8 0 10.5 4.7 10.5 10.5v442c0 5.8-4.7 10.5-10.5 10.5H395z"/><path class="st1" d="M742.5 28c5 0 9 4 9 9v442c0 5-4 9-9 9H395c-5 0-9-4-9-9V37c0-5 4-9 9-9h347.5m0-3H395c-6.6 0-12 5.4-12 12v442c0 6.6 5.4 12 12 12h347.5c6.6 0 12-5.4 12-12V37c0-6.6-5.4-12-12-12z"/><path class="st0" d="M24 502.5c-5.8 0-10.5-4.7-10.5-10.5V23c0-5.8 4.7-10.5 10.5-10.5h369c5.8 0 10.5 4.7 10.5 10.5v469c0 5.8-4.7 10.5-10.5 10.5H24z"/><path class="st1" d="M393 14c5 0 9 4 9 9v469c0 5-4 9-9 9H24c-5 0-9-4-9-9V23c0-5 4-9 9-9h369m0-3H24c-6.6 0-12 5.4-12 12v469c0 6.6 5.4 12 12 12h369c6.6 0 12-5.4 12-12V23c0-6.6-5.4-12-12-12z"/><path d="M361 327H63c-4.4 0-8-3.6-8-8V99c0-4.4 3.6-8 8-8h298c4.4 0 8 3.6 8 8v220c0 4.4-3.6 8-8 8z" fill="#e2f4e1" stroke="#35495e" stroke-width="3" stroke-miterlimit="10"/><path class="st3" d="M322 453h-4c-6.6 0-12-5.4-12-12v-60c0-6.6 5.4-12 12-12h4c6.6 0 12 5.4 12 12v60c0 6.6-5.4 12-12 12z"/><path class="st3" d="M362 409v4c0 6.6-5.4 12-12 12h-60c-6.6 0-12-5.4-12-12v-4c0-6.6 5.4-12 12-12h60c6.6 0 12 5.4 12 12z"/><path class="st1" d="M328 457h-4c-6.6 0-12-5.4-12-12v-60c0-6.6 5.4-12 12-12h4c6.6 0 12 5.4 12 12v60c0 6.6-5.4 12-12 12z"/><path class="st1" d="M368 413v4c0 6.6-5.4 12-12 12h-60c-6.6 0-12-5.4-12-12v-4c0-6.6 5.4-12 12-12h60c6.6 0 12 5.4 12 12z"/><g><circle cx="79.5" cy="390.5" r="25" fill="#566a7c"/><circle class="st5" cx="85" cy="394" r="25"/></g><g><path class="st3" d="M192.5 388h-41c-3 0-5.5-2.5-5.5-5.5s2.5-5.5 5.5-5.5h41c3 0 5.5 2.5 5.5 5.5s-2.5 5.5-5.5 5.5z"/><path class="st1" d="M196.5 392h-41c-3 0-5.5-2.5-5.5-5.5s2.5-5.5 5.5-5.5h41c3 0 5.5 2.5 5.5 5.5s-2.5 5.5-5.5 5.5z"/><g><path class="st3" d="M254.5 388h-41c-3 0-5.5-2.5-5.5-5.5s2.5-5.5 5.5-5.5h41c3 0 5.5 2.5 5.5 5.5s-2.5 5.5-5.5 5.5z"/><path class="st1" d="M258.5 392h-41c-3 0-5.5-2.5-5.5-5.5s2.5-5.5 5.5-5.5h41c3 0 5.5 2.5 5.5 5.5s-2.5 5.5-5.5 5.5z"/></g></g><g><path class="st5" d="M13 519.1c.5-.1 1.2-.2 2-.2 1 0 1.8.2 2.3.7.4.4.7 1 .7 1.7s-.2 1.3-.6 1.7c-.6.6-1.5.9-2.5.9-.3 0-.6 0-.8-.1v3.2h-1v-7.9zm1 3.9c.2.1.5.1.9.1 1.3 0 2-.6 2-1.7s-.8-1.6-1.9-1.6c-.5 0-.8 0-1 .1v3.1zM26.3 523c0 2.8-1.7 4.3-3.8 4.3-2.1 0-3.6-1.7-3.6-4.1 0-2.6 1.6-4.2 3.8-4.2 2.2-.1 3.6 1.6 3.6 4zm-6.3.1c0 1.7.9 3.3 2.6 3.3 1.7 0 2.6-1.5 2.6-3.4 0-1.6-.8-3.3-2.6-3.3-1.7 0-2.6 1.6-2.6 3.4zM29 527.1l-2.1-8.1H28l1 4.1c.2 1 .5 2 .6 2.8.1-.8.4-1.8.7-2.8l1.1-4.1h1.1l1 4.1c.2 1 .4 1.9.6 2.8.2-.9.4-1.8.6-2.8l1.1-4.1h1.1l-2.3 8.1h-1.1l-1-4.2c-.3-1-.4-1.8-.5-2.6-.1.8-.3 1.6-.6 2.6l-1.2 4.2H29zM42 523.3h-3.1v2.9h3.5v.9h-4.5V519h4.4v.9H39v2.6h3v.8zM43.7 519.1c.5-.1 1.3-.2 2-.2 1.1 0 1.8.2 2.3.7.4.4.6.9.6 1.5 0 1.1-.7 1.8-1.5 2.1.6.2 1 .8 1.2 1.6.3 1.1.5 1.9.6 2.2h-1.1c-.1-.2-.3-.9-.5-1.9-.2-1.1-.7-1.5-1.6-1.6h-1v3.5h-1v-7.9zm1 3.7h1.1c1.1 0 1.8-.6 1.8-1.5 0-1-.8-1.5-1.9-1.5-.5 0-.9 0-1 .1v2.9zM54.3 523.3h-3.1v2.9h3.5v.9h-4.5V519h4.4v.9h-3.3v2.6h3.1v.8zM56.1 519.1c.6-.1 1.4-.2 2.2-.2 1.5 0 2.6.3 3.3 1 .7.7 1.1 1.6 1.1 2.9 0 1.3-.4 2.4-1.2 3.1-.8.8-2 1.2-3.6 1.2-.7 0-1.4 0-1.9-.1v-7.9zm1 7.2c.3 0 .6.1 1.1.1 2.2 0 3.4-1.2 3.4-3.4 0-1.9-1.1-3.1-3.3-3.1-.5 0-.9 0-1.2.1v6.3zM66.6 519.1c.5-.1 1.2-.2 1.9-.2 1 0 1.7.2 2.2.6.4.3.7.8.7 1.4 0 .8-.5 1.5-1.4 1.8.8.2 1.7.8 1.7 2 0 .7-.3 1.2-.7 1.6-.6.5-1.5.8-2.8.8-.7 0-1.3 0-1.6-.1v-7.9zm1 3.3h.9c1.1 0 1.8-.6 1.8-1.4 0-.9-.7-1.3-1.8-1.3-.5 0-.8 0-.9.1v2.6zm0 3.9h.9c1.1 0 2.1-.4 2.1-1.6 0-1.1-.9-1.6-2.1-1.6h-.9v3.2zM74.7 527.1v-3.4l-2.6-4.7h1.2l1.1 2.2c.3.6.6 1.1.8 1.7.2-.5.5-1.1.8-1.7l1.2-2.2h1.2l-2.7 4.6v3.4h-1zM78.7 522.2c0-.4.3-.8.7-.8s.7.3.7.8c0 .4-.3.7-.7.7-.4.1-.7-.2-.7-.7zm0 4.3c0-.4.3-.8.7-.8s.7.3.7.8c0 .4-.3.7-.7.7-.4 0-.7-.3-.7-.7z"/><g><path class="st0" d="M102.8 515h4.2l-10.4 18-10.4-18h8l2.5 4.2L99 515h3.8z"/><path class="st0" d="M86.1 515l10.4 18 10.4-18h-4.2l-6.3 10.8-6.1-10.8h-4.2z"/><path class="st5" d="M90.3 515l6.3 10.9 6.3-10.9H99l-2.4 4.2-2.5-4.2h-3.8z"/></g><g><path class="st5" d="M119 520.7v2.8h2.7v.7H119v2.8h-.8v-2.8h-2.7v-.7h2.7v-2.8h.8zM125.7 519.1c.5-.1 1.2-.2 2-.2 1 0 1.8.2 2.3.7.4.4.7 1 .7 1.7s-.2 1.3-.6 1.7c-.6.6-1.5.9-2.5.9-.3 0-.6 0-.8-.1v3.2h-1v-7.9zm1 3.9c.2.1.5.1.9.1 1.3 0 2-.6 2-1.7s-.8-1.6-1.9-1.6c-.5 0-.8 0-1 .1v3.1zM137 524.1c0 2.1-1.5 3.1-2.9 3.1-1.6 0-2.8-1.2-2.8-3 0-1.9 1.3-3.1 2.9-3.1 1.7 0 2.8 1.3 2.8 3zm-4.6.1c0 1.3.7 2.2 1.8 2.2 1 0 1.8-.9 1.8-2.3 0-1-.5-2.2-1.7-2.2-1.4 0-1.9 1.2-1.9 2.3zM139.4 523.9c.2-.2.4-.5.5-.7l1.7-2h1.3l-2.2 2.4 2.6 3.4H142l-2-2.8-.5.6v2.2h-1v-8.5h1v5.4zM144.5 524.4c0 1.4.9 2 2 2 .8 0 1.2-.1 1.6-.3l.2.8c-.4.2-1 .4-1.9.4-1.8 0-2.9-1.2-2.9-2.9s1-3.1 2.7-3.1c1.9 0 2.4 1.7 2.4 2.7v.5h-4.1zm3.1-.8c0-.7-.3-1.7-1.5-1.7-1.1 0-1.5 1-1.6 1.7h3.1zm.3-4.8l-1.5 1.7h-.8l1.1-1.7h1.2zM151.3 524.5l-.8 2.5h-1.1l2.7-8.1h1.3l2.8 8.1H155l-.9-2.5h-2.8zm2.7-.8l-.8-2.3c-.2-.5-.3-1-.4-1.5-.1.5-.3 1-.4 1.5l-.8 2.3h2.4zM157.3 519.1c.5-.1 1.2-.2 2-.2 1 0 1.8.2 2.3.7.4.4.7 1 .7 1.7s-.2 1.3-.6 1.7c-.6.6-1.5.9-2.5.9-.3 0-.6 0-.8-.1v3.2h-1v-7.9zm1.1 3.9c.2.1.5.1.9.1 1.3 0 2-.6 2-1.7s-.8-1.6-1.9-1.6c-.5 0-.8 0-1 .1v3.1zM164.8 519v8.1h-1V519h1z"/></g></g></svg>