<svg xmlns="http://www.w3.org/2000/svg" viewBox="0 0 674.7 672.1"><path d="M665.6 337.4c0-181.3-146.9-328.2-328.2-328.2S9.2 156.1 9.2 337.4" fill="#41b883" stroke="#35495e" stroke-width="18.308"/><path d="M665.3 334.8c0 181.2-146.9 328.1-328.1 328.1S9.2 516 9.2 334.8" fill="#fff" stroke="#35495e" stroke-width="18.3"/><path d="M18 368.1h641v-54H18v54z" fill="#35495e" stroke="#35495e" stroke-width="18.308"/><path d="M252 340.8c0 47.4 38.5 85.8 85.9 85.8 47.4 0 85.8-38.5 85.8-85.9 0-47.4-38.5-85.8-85.9-85.8-47.4.1-85.8 38.5-85.8 85.9" fill="#fff" stroke="#35495e" stroke-width="4.33"/><path d="M383.4 343.1c-1.7 25.5-23.8 44.7-49.3 43-25.5-1.7-44.7-23.8-43-49.3 1.7-25.5 23.8-44.7 49.3-43 25.2 1.7 44.4 23.4 43 48.7" fill="#41b883" stroke="#35495e" stroke-width="9.154"/></svg>